<svg width="100" height="96" viewBox="0 0 100 96" fill="none" xmlns="http://www.w3.org/2000/svg">
<path fill-rule="evenodd" clip-rule="evenodd" d="M92.7855 29.6305C96.7935 29.6305 99.9999 32.8961 99.9999 36.9782V58.8173C99.9999 62.8994 96.7935 66.165 92.7855 66.165C88.7775 66.165 85.571 62.8994 85.571 58.8173V36.9782C85.571 32.8961 88.7775 29.6305 92.7855 29.6305Z" fill="#80A3B5"/>
<path fill-rule="evenodd" clip-rule="evenodd" d="M64.3288 26.1609C64.3288 22.2829 67.5352 18.8132 71.5432 18.8132H78.5573C82.5653 18.8132 85.7717 22.0788 85.7717 26.1609C85.7717 30.2429 82.5653 33.5086 78.7577 33.5086V69.839C78.7577 73.9211 75.5513 77.1867 71.5432 77.1867C67.5352 77.1867 64.3288 73.9211 64.3288 69.839V26.1609ZM71.3428 0.647949C75.3509 0.647949 78.5573 3.9136 78.5573 7.99567C78.5573 12.0777 75.3509 15.3434 71.3428 15.3434C67.3348 15.3434 64.1284 12.0777 64.1284 7.99567C64.1284 3.9136 67.3348 0.647949 71.3428 0.647949Z" fill="#648CA0"/>
<path fill-rule="evenodd" clip-rule="evenodd" d="M7.21443 29.6306C11.2224 29.6306 14.4289 32.8963 14.4289 36.9784V58.8174C14.4289 62.8995 11.2224 66.1652 7.21443 66.1652C3.20641 66.1652 0 62.8995 0 58.8174V36.9784C0 32.8963 3.20641 29.6306 7.21443 29.6306ZM7.21443 0.647949C11.2224 0.647949 14.4289 3.9136 14.4289 7.99567C14.4289 12.0777 11.2224 15.3434 7.21443 15.3434C3.20641 15.3434 0 12.0777 0 7.99567C0 3.9136 3.20641 0.647949 7.21443 0.647949Z" fill="#FFE082"/>
<path fill-rule="evenodd" clip-rule="evenodd" d="M28.4569 18.8131C32.4649 18.8131 35.6713 22.0788 35.6713 26.1608V69.839C35.6713 73.921 32.4649 77.1867 28.4569 77.1867C24.4488 77.1867 21.2424 73.921 21.2424 69.839V26.1608C21.2424 22.0788 24.4488 18.8131 28.4569 18.8131Z" fill="#FFD54F"/>
<path fill-rule="evenodd" clip-rule="evenodd" d="M50.1002 0.647949C54.1082 0.647949 57.3146 3.9136 57.3146 7.99567V88.0042C57.3146 92.0863 54.1082 95.3519 50.1002 95.3519C46.0922 95.3519 42.8857 92.0863 42.8857 88.0042V7.99567C42.8857 3.9136 46.0922 0.647949 50.1002 0.647949Z" fill="#FFCA28"/>
</svg>
