<svg width="56" height="56" viewBox="0 0 56 56" fill="none" xmlns="http://www.w3.org/2000/svg">
<mask id="mask0_2_12578" style="mask-type:alpha" maskUnits="userSpaceOnUse" x="2" y="9" width="52" height="37">
<path d="M23.9896 40.9274C20.1556 37.6309 17.7333 32.7462 17.7333 27.3C17.7333 21.8539 20.1636 16.9692 23.9896 13.6726C22.8105 13.3518 21.5753 13.1834 20.3 13.1834C12.5037 13.1834 6.18333 19.5038 6.18333 27.3C6.18333 35.0963 12.5037 41.4167 20.3 41.4167C21.5753 41.4167 22.8185 41.2483 23.9896 40.9274ZM22.5458 32.4334H33.4542C33.9274 31.2222 34.2402 29.9309 34.3605 28.5834H21.6395C21.7598 29.9309 22.0726 31.2222 22.5458 32.4334ZM23.8693 35C24.9441 36.6523 26.3557 38.056 28 39.1308C29.6523 38.056 31.0559 36.6443 32.1307 35H23.8693ZM22.5458 22.1667C22.0726 23.3779 21.7598 24.6692 21.6395 26.0167H34.3605C34.2402 24.6692 33.9274 23.3779 33.4542 22.1667H22.5458ZM32.1307 19.6C31.0559 17.9477 29.6443 16.5441 28 15.4693C26.3477 16.5441 24.9441 17.9558 23.8693 19.6H32.1307ZM28 43.5342C25.6659 44.6411 23.0592 45.2667 20.3 45.2667C10.3782 45.2667 2.33333 37.2218 2.33333 27.3C2.33333 17.3783 10.3782 9.33337 20.3 9.33337C23.0592 9.33337 25.6659 9.95098 28 11.0659C30.3341 9.95098 32.9408 9.33337 35.7 9.33337C45.6218 9.33337 53.6667 17.3783 53.6667 27.3C53.6667 37.2218 45.6218 45.2667 35.7 45.2667C32.9408 45.2667 30.3341 44.6491 28 43.5342Z" fill="black"/>
</mask>
<g mask="url(#mask0_2_12578)">
<rect width="56" height="56" fill="#9CA5AF"/>
</g>
</svg>
