<svg width="19" height="18" viewBox="0 0 19 18" fill="none" xmlns="http://www.w3.org/2000/svg">
<path d="M17.8201 7.43504L10.4781 7.43469C10.1539 7.43469 9.89111 7.69745 9.89111 8.02166V10.3671C9.89111 10.6913 10.1539 10.9541 10.4781 10.9541H14.6127C14.1599 12.129 13.3149 13.113 12.2368 13.7382L13.9998 16.7901C16.8278 15.1545 18.4998 12.2848 18.4998 9.07227C18.4998 8.61485 18.4661 8.28786 18.3986 7.91967C18.3474 7.63993 18.1045 7.43504 17.8201 7.43504Z" fill="#167EE6"/>
<path d="M9.5002 14.4784C7.47682 14.4784 5.71043 13.3729 4.76173 11.7369L1.70996 13.4959C3.26299 16.1876 6.17231 18.0001 9.5002 18.0001C11.1328 18.0001 12.6732 17.5606 14.0002 16.7946V16.7904L12.2372 13.7385C11.4308 14.2062 10.4976 14.4784 9.5002 14.4784Z" fill="#12B347"/>
<path d="M14 16.7943V16.7901L12.237 13.7382C11.4306 14.2058 10.4975 14.4781 9.5 14.4781V17.9998C11.1326 17.9998 12.6731 17.5603 14 16.7943Z" fill="#0F993E"/>
<path d="M4.02174 9.00021C4.02174 8.00286 4.29392 7.06978 4.76154 6.2634L1.70976 4.50439C0.939524 5.82722 0.5 7.36348 0.5 9.00021C0.5 10.6369 0.939524 12.1732 1.70976 13.496L4.76154 11.737C4.29392 10.9306 4.02174 9.99756 4.02174 9.00021Z" fill="#FFD500"/>
<path d="M9.5002 3.52174C10.8196 3.52174 12.0316 3.99059 12.9783 4.77046C13.2118 4.96283 13.5513 4.94895 13.7652 4.73502L15.427 3.07318C15.6697 2.83047 15.6524 2.43316 15.3932 2.20823C13.8071 0.832254 11.7434 0 9.5002 0C6.17231 0 3.26299 1.81255 1.70996 4.50418L4.76173 6.26319C5.71043 4.62727 7.47682 3.52174 9.5002 3.52174Z" fill="#FF4B26"/>
<path d="M12.9781 4.77046C13.2116 4.96283 13.5511 4.94895 13.765 4.73502L15.4268 3.07318C15.6695 2.83047 15.6522 2.43316 15.393 2.20824C13.8069 0.832219 11.7432 0 9.5 0V3.52174C10.8194 3.52174 12.0314 3.99059 12.9781 4.77046Z" fill="#D93F21"/>
</svg>
