<svg width="16" height="16" viewBox="0 0 16 16" fill="none" xmlns="http://www.w3.org/2000/svg">
<mask id="mask0_114_3703" style="mask-type:alpha" maskUnits="userSpaceOnUse" x="2" y="2" width="12" height="12">
<path d="M8 2C4.68594 2 2 4.68594 2 8C2 11.3141 4.68594 14 8 14C11.3141 14 14 11.3141 14 8C14 4.68594 11.3141 2 8 2ZM8 12.875C5.31172 12.875 3.125 10.688 3.125 8C3.125 5.31195 5.31172 3.125 8 3.125C10.6883 3.125 12.875 5.31195 12.875 8C12.875 10.688 10.6883 12.875 8 12.875ZM8.9375 9.875H8.5625V7.8125C8.5625 7.50312 8.31172 7.25 8 7.25H7.25C6.94062 7.25 6.6875 7.50312 6.6875 7.8125C6.6875 8.12187 6.94062 8.375 7.25 8.375H7.4375V9.875H7.0625C6.75312 9.875 6.5 10.1281 6.5 10.4375C6.5 10.7469 6.75312 11 7.0625 11H8.9375C9.24805 11 9.5 10.748 9.5 10.4375C9.5 10.127 9.24922 9.875 8.9375 9.875ZM8 6.5C8.41414 6.5 8.75 6.16414 8.75 5.75C8.75 5.33586 8.41414 5 8 5C7.58586 5 7.25 5.33516 7.25 5.75C7.25 6.16484 7.58516 6.5 8 6.5Z" fill="#CC4959"/>
</mask>
<g mask="url(#mask0_114_3703)">
<rect width="16" height="16" fill="#848E9B"/>
</g>
</svg>
