<svg width="56" height="56" viewBox="0 0 56 56" fill="none" xmlns="http://www.w3.org/2000/svg">
<mask id="mask0_114_41" style="mask-type:alpha" maskUnits="userSpaceOnUse" x="4" y="4" width="48" height="48">
<path d="M38.0625 24.1263L42.237 24.819C42.4649 25.8489 42.5834 26.9062 42.5834 28C42.5834 36.0572 36.0573 42.5833 28 42.5833C19.9427 42.5833 13.4167 36.0572 13.4167 28C13.4167 19.9427 19.9427 13.4166 28 13.4166C29.0117 13.4166 30.1511 13.5369 31.181 13.7639L31.8737 17.9375L31.4271 18.3841C30.3607 18.0013 29.2031 17.7096 28 17.7096C22.3581 17.7096 17.7917 22.358 17.7917 27.9179C17.7917 33.6419 22.3581 38.2083 28 38.2083C33.6419 38.2083 38.2084 33.6419 38.2084 27.9179C38.2084 26.7968 37.9987 25.6393 37.6159 24.5729L38.0625 24.1263ZM50.03 20.2981C50.7956 22.6315 51.3334 25.302 51.3334 28C51.3334 40.888 40.888 51.3333 28 51.3333C15.112 51.3333 4.66669 40.888 4.66669 28C4.66669 15.1119 15.112 4.66663 28 4.66663C30.6979 4.66663 33.2865 5.12454 35.7018 5.96728L32.1654 9.501C30.7435 9.20022 29.431 9.04163 28 9.04163C17.5274 9.04163 9.04169 17.5273 9.04169 28C9.04169 38.4726 17.5274 46.9583 28 46.9583C38.4727 46.9583 46.9584 38.4726 46.9584 28C46.9584 26.569 46.8034 25.1744 46.4206 23.8346L50.03 20.2981ZM29.4675 29.4674C28.6927 30.3971 27.3073 30.3971 26.4505 29.4674C25.6029 28.6927 25.6029 27.3072 26.4505 26.4505L34.8542 18.0559L34.0794 13.4385C33.9245 12.5097 34.2253 11.5627 34.8906 10.8974L39.5573 6.23069C40.2227 5.49013 41.5534 5.74762 41.9453 6.72014L44.0417 11.8763L49.2826 13.9726C50.2487 14.4466 50.431 15.6953 49.7656 16.4427L45.099 21.1093C44.4336 21.7747 43.4857 21.9934 42.5651 21.9205L37.944 21.1458L29.4675 29.4674Z" fill="#848E9B"/>
</mask>
<g mask="url(#mask0_114_41)">
<rect width="56" height="56" fill="#FDFDFD"/>
</g>
</svg>
