<svg width="56" height="56" viewBox="0 0 56 56" fill="none" xmlns="http://www.w3.org/2000/svg">
<g clip-path="url(#clip0_33_160)">
<mask id="mask0_33_160" style="mask-type:alpha" maskUnits="userSpaceOnUse" x="4" y="4" width="48" height="48">
<path d="M21.8294 18.0742C22.513 17.6823 23.3607 17.6184 24.0352 18.1106L37.1602 26.1315C37.8073 26.5325 38.2084 27.2343 38.2084 28C38.2084 28.7656 37.8073 29.4674 37.1602 29.8684L24.0352 37.8893C23.3607 38.2994 22.513 38.3177 21.8294 37.9257C21.1367 37.5429 20.7084 36.8138 20.7084 36.0208V19.8971C20.7084 19.1862 21.1367 18.457 21.8294 18.0742ZM51.3334 28C51.3334 40.888 40.888 51.3333 28 51.3333C15.112 51.3333 4.66669 40.888 4.66669 28C4.66669 15.1119 15.112 4.66663 28 4.66663C40.888 4.66663 51.3334 15.1119 51.3334 28ZM28 9.04163C17.5274 9.04163 9.04169 17.5273 9.04169 28C9.04169 38.4726 17.5274 46.9583 28 46.9583C38.4727 46.9583 46.9584 38.4726 46.9584 28C46.9584 17.5273 38.4727 9.04163 28 9.04163Z" fill="#6C7885"/>
</mask>
<g mask="url(#mask0_33_160)">
<rect opacity="0.9" width="56" height="56" fill="#FDFDFD"/>
</g>
</g>
<defs>
<clipPath id="clip0_33_160">
<rect width="56" height="56" fill="white"/>
</clipPath>
</defs>
</svg>
