<svg width="56" height="56" viewBox="0 0 56 56" fill="none" xmlns="http://www.w3.org/2000/svg">
<mask id="mask0_114_65" style="mask-type:alpha" maskUnits="userSpaceOnUse" x="0" y="4" width="56" height="48">
<path d="M30.625 41.125C30.625 41.9303 29.972 42.5833 29.1667 42.5833H26.25C25.4479 42.5833 24.7917 41.927 24.7917 41.125C24.7917 40.3229 25.4479 39.6666 26.25 39.6666H29.1667C29.9688 39.6666 30.625 40.3229 30.625 41.125ZM20.4167 39.6666H16.0417C15.2363 39.6666 14.5833 40.3194 14.5833 41.125C14.5833 41.927 15.2396 42.5833 16.0417 42.5833H20.4167C21.2188 42.5833 21.875 41.927 21.875 41.125C21.875 40.3229 21.2188 39.6666 20.4167 39.6666ZM14.2188 28.3645C14.2188 24.9466 16.9987 22.1666 20.4167 22.1666C23.8346 22.1666 26.6146 24.9466 26.6146 28.3645C26.6146 31.7816 23.8346 34.5625 20.4167 34.5625C16.9987 34.5625 14.2188 31.7825 14.2188 28.3645ZM18.5937 28.3645C18.5937 29.3708 19.41 30.1875 20.4167 30.1875C21.4238 30.1875 22.2396 29.3712 22.2396 28.3645C22.2396 27.2799 21.4193 26.5416 20.4167 26.5416C19.332 26.5416 18.5937 27.2799 18.5937 28.3645ZM41.1979 28.3645C41.1979 31.7816 38.4107 34.4804 34.9936 34.4804C31.5756 34.4804 28.7893 31.7005 28.7893 28.3645C28.7893 24.9466 31.5766 22.2487 34.9936 22.2487C38.4089 22.1666 41.1979 24.9466 41.1979 28.3645ZM36.8138 28.3645C36.8138 27.3601 36.0011 26.5471 34.9973 26.5425C33.9883 26.5507 33.1771 27.2799 33.1771 28.3645C33.1771 29.369 33.9897 30.182 34.9936 30.1865C35.9935 30.1783 36.8138 29.3671 36.8138 28.3645ZM39.375 39.6666H35C34.1946 39.6666 33.5417 40.3194 33.5417 41.125C33.5417 41.9303 34.1946 42.5833 35 42.5833H39.375C40.1804 42.5833 40.8333 41.9303 40.8333 41.125C40.8333 40.3229 40.1771 39.6666 39.375 39.6666ZM48.125 20.7083V44.0416C48.125 48.0684 44.8602 51.3333 40.8333 51.3333H14.5833C10.5547 51.3333 7.29167 48.0703 7.29167 44.0416V20.7083C7.29167 16.6796 10.5547 13.4166 14.5833 13.4166H25.5208V6.85413C25.5208 5.64644 26.5052 4.66663 27.7083 4.66663C28.9115 4.66663 29.8958 5.64644 29.8958 6.85413V13.4166H40.8333C44.862 13.4166 48.125 16.6796 48.125 20.7083ZM43.75 20.7083C43.75 19.1005 42.4411 17.7916 40.8333 17.7916H14.5833C12.9755 17.7916 11.6667 19.1005 11.6667 20.7083V44.0416C11.6667 45.6494 12.9755 46.9583 14.5833 46.9583H40.8333C42.4411 46.9583 43.75 45.6494 43.75 44.0416V20.7083ZM52.5091 22.1666H51.0417V39.6666H52.5073C54.1224 39.6666 55.4167 38.3632 55.4167 36.75V25.0833C55.4167 23.47 54.1133 22.1666 52.5091 22.1666ZM0 25.0833V36.75C0 38.3605 1.29974 39.6666 2.9112 39.6666H4.375V22.1666H2.9194C1.30885 22.1666 0 23.47 0 25.0833Z" fill="#848E9B"/>
</mask>
<g mask="url(#mask0_114_65)">
<rect width="56" height="56" fill="#FDFDFD"/>
</g>
</svg>
