<svg width="56" height="56" viewBox="0 0 56 56" fill="none" xmlns="http://www.w3.org/2000/svg">
<mask id="mask0_114_134" style="mask-type:alpha" maskUnits="userSpaceOnUse" x="4" y="4" width="48" height="48">
<path d="M33.8334 6.85413C33.8334 5.64644 34.8086 4.66663 36.0209 4.66663H46.2292C47.4414 4.66663 48.4167 5.64644 48.4167 6.85413V17.0625C48.4167 18.2747 47.4414 19.25 46.2292 19.25C45.0169 19.25 44.0417 18.2747 44.0417 17.0625V12.1351L32.3841 23.6341C31.655 24.5182 30.3607 24.5729 29.4948 23.8255L20.7175 16.3059L11.2037 24.5455C10.2904 25.3385 8.90861 25.2382 8.11747 24.3268C7.32632 23.4153 7.42567 22.0299 8.33804 21.2461L19.2774 11.7632C20.0977 11.0541 21.3099 11.0505 22.1302 11.7559L30.7982 19.1862L40.9518 8.95959H36.0209C34.8086 8.95959 33.8334 8.06181 33.8334 6.77209V6.85413ZM22.1667 39.6666C22.1667 36.4492 24.7826 33.8333 28 33.8333C31.2175 33.8333 33.8334 36.4492 33.8334 39.6666C33.8334 42.8841 31.2175 45.5 28 45.5C24.7826 45.5 22.1667 42.8841 22.1667 39.6666ZM46.9584 28C49.3737 28 51.3334 29.9596 51.3334 32.375V46.9583C51.3334 49.3737 49.3737 51.3333 46.9584 51.3333H9.04169C6.62541 51.3333 4.66669 49.3737 4.66669 46.9583V32.375C4.66669 29.9596 6.62541 28 9.04169 28H46.9584ZM9.04169 37.4336V41.8997C11.6804 42.2278 13.7712 44.3151 14.1003 46.9583H41.8998C42.2279 44.3151 44.3151 42.2278 46.9584 41.8997V37.4336C44.3151 37.1054 42.2279 34.9362 41.8998 32.375H14.1003C13.7722 34.9362 11.6804 37.1054 9.04169 37.4336Z" fill="#848E9B"/>
</mask>
<g mask="url(#mask0_114_134)">
<rect width="56" height="56" fill="#FDFDFD"/>
</g>
</svg>
