<svg width="24" height="24" viewBox="0 0 24 24" fill="none" xmlns="http://www.w3.org/2000/svg">
<mask id="mask0_2_12588" style="mask-type:alpha" maskUnits="userSpaceOnUse" x="3" y="2" width="18" height="20">
<path d="M13.5938 13.7812H10.0312C6.42422 13.7812 3.5 16.7055 3.5 20.3125C3.5 20.9682 4.03178 21.5 4.6875 21.5H18.9375C19.5932 21.5 20.125 20.9682 20.125 20.3125C20.125 16.7055 17.2008 13.7812 13.5938 13.7812ZM5.31799 19.7188C5.61115 17.3771 7.61172 15.5625 10.0312 15.5625H13.5938C16.0118 15.5625 18.0135 17.379 18.3066 19.7188H5.31799ZM11.8125 12C14.4358 12 16.5625 9.87326 16.5625 7.25C16.5625 4.62674 14.4358 2.5 11.8125 2.5C9.18924 2.5 7.0625 4.62674 7.0625 7.25C7.0625 9.87363 9.18887 12 11.8125 12ZM11.8125 4.28125C13.4494 4.28125 14.7812 5.61311 14.7812 7.25C14.7812 8.88689 13.4494 10.2188 11.8125 10.2188C10.1756 10.2188 8.84375 8.88652 8.84375 7.25C8.84375 5.61311 10.176 4.28125 11.8125 4.28125Z" fill="#848E9B"/>
</mask>
<g mask="url(#mask0_2_12588)">
<rect width="24" height="24" fill="#CDA876"/>
</g>
</svg>
